<mxfile host="app.diagrams.net" modified="2023-05-11T06:52:45.441Z" agent="Mozilla/5.0 (Windows NT 10.0; Win64; x64) AppleWebKit/537.36 (KHTML, like Gecko) Chrome/112.0.0.0 Safari/537.36" etag="6oP9EQ3VPGUj25r3INtw" version="21.2.9" type="github" pages="2">
  <diagram name="communication_diagram_양현지" id="VjG1DPXc5YwxViOuIO_d">
    <mxGraphModel dx="1323" dy="783" grid="1" gridSize="10" guides="1" tooltips="1" connect="1" arrows="1" fold="1" page="1" pageScale="1" pageWidth="827" pageHeight="1169" math="0" shadow="0">
      <root>
        <mxCell id="0" />
        <mxCell id="1" parent="0" />
        <mxCell id="7wJlKryIVbr1_fhA59LQ-1" value="&lt;b&gt;sd&amp;nbsp; showApplyInfo&lt;/b&gt;" style="shape=umlFrame;whiteSpace=wrap;html=1;pointerEvents=0;recursiveResize=0;container=1;collapsible=0;width=160;" vertex="1" parent="1">
          <mxGeometry x="80" y="50" width="810" height="320" as="geometry" />
        </mxCell>
        <mxCell id="7wJlKryIVbr1_fhA59LQ-2" value="GenMember" style="shape=umlActor;verticalLabelPosition=bottom;verticalAlign=top;html=1;outlineConnect=0;" vertex="1" parent="7wJlKryIVbr1_fhA59LQ-1">
          <mxGeometry x="20" y="96.25" width="26" height="42.5" as="geometry" />
        </mxCell>
        <mxCell id="7wJlKryIVbr1_fhA59LQ-3" value=":&lt;b style=&quot;border-color: var(--border-color);&quot;&gt;showApplyInfo&lt;/b&gt;UI" style="fontStyle=1;whiteSpace=wrap;html=1;" vertex="1" parent="7wJlKryIVbr1_fhA59LQ-1">
          <mxGeometry x="113" y="102.5" width="140" height="30" as="geometry" />
        </mxCell>
        <mxCell id="7wJlKryIVbr1_fhA59LQ-4" value=":GenMember" style="fontStyle=1;whiteSpace=wrap;html=1;" vertex="1" parent="7wJlKryIVbr1_fhA59LQ-1">
          <mxGeometry x="643" y="102.5" width="140" height="30" as="geometry" />
        </mxCell>
        <mxCell id="7wJlKryIVbr1_fhA59LQ-5" value=":&lt;b style=&quot;border-color: var(--border-color);&quot;&gt;showApplyInfo&lt;/b&gt;" style="fontStyle=1;whiteSpace=wrap;html=1;" vertex="1" parent="7wJlKryIVbr1_fhA59LQ-1">
          <mxGeometry x="363" y="102.5" width="140" height="30" as="geometry" />
        </mxCell>
        <mxCell id="7wJlKryIVbr1_fhA59LQ-6" value="" style="endArrow=none;startArrow=none;endFill=0;startFill=0;endSize=8;html=1;verticalAlign=bottom;labelBackgroundColor=none;strokeWidth=3;rounded=0;" edge="1" parent="7wJlKryIVbr1_fhA59LQ-1">
          <mxGeometry width="160" relative="1" as="geometry">
            <mxPoint x="53" y="117" as="sourcePoint" />
            <mxPoint x="113" y="117" as="targetPoint" />
          </mxGeometry>
        </mxCell>
        <mxCell id="7wJlKryIVbr1_fhA59LQ-7" value="" style="endArrow=none;startArrow=none;endFill=0;startFill=0;endSize=8;html=1;verticalAlign=bottom;labelBackgroundColor=none;strokeWidth=3;rounded=0;entryX=0;entryY=0.5;entryDx=0;entryDy=0;" edge="1" parent="7wJlKryIVbr1_fhA59LQ-1" target="7wJlKryIVbr1_fhA59LQ-5">
          <mxGeometry width="160" relative="1" as="geometry">
            <mxPoint x="253" y="117" as="sourcePoint" />
            <mxPoint x="360" y="117" as="targetPoint" />
          </mxGeometry>
        </mxCell>
        <mxCell id="7wJlKryIVbr1_fhA59LQ-8" value="" style="endArrow=none;startArrow=none;endFill=0;startFill=0;endSize=8;html=1;verticalAlign=bottom;labelBackgroundColor=none;strokeWidth=3;rounded=0;entryX=0;entryY=0.5;entryDx=0;entryDy=0;" edge="1" parent="7wJlKryIVbr1_fhA59LQ-1" target="7wJlKryIVbr1_fhA59LQ-4">
          <mxGeometry width="160" relative="1" as="geometry">
            <mxPoint x="503" y="117" as="sourcePoint" />
            <mxPoint x="610" y="120" as="targetPoint" />
          </mxGeometry>
        </mxCell>
        <mxCell id="7wJlKryIVbr1_fhA59LQ-9" value="" style="html=1;verticalAlign=bottom;labelBackgroundColor=none;endArrow=block;endFill=1;rounded=0;" edge="1" parent="7wJlKryIVbr1_fhA59LQ-1">
          <mxGeometry width="160" relative="1" as="geometry">
            <mxPoint x="60" y="92" as="sourcePoint" />
            <mxPoint x="104" y="92" as="targetPoint" />
          </mxGeometry>
        </mxCell>
        <mxCell id="7wJlKryIVbr1_fhA59LQ-10" value="" style="html=1;verticalAlign=bottom;labelBackgroundColor=none;endArrow=block;endFill=1;rounded=0;" edge="1" parent="7wJlKryIVbr1_fhA59LQ-1">
          <mxGeometry width="160" relative="1" as="geometry">
            <mxPoint x="260" y="93" as="sourcePoint" />
            <mxPoint x="357" y="93" as="targetPoint" />
          </mxGeometry>
        </mxCell>
        <mxCell id="7wJlKryIVbr1_fhA59LQ-11" value="" style="html=1;verticalAlign=bottom;labelBackgroundColor=none;endArrow=block;endFill=1;rounded=0;" edge="1" parent="7wJlKryIVbr1_fhA59LQ-1">
          <mxGeometry width="160" relative="1" as="geometry">
            <mxPoint x="529" y="93" as="sourcePoint" />
            <mxPoint x="626" y="93" as="targetPoint" />
          </mxGeometry>
        </mxCell>
        <mxCell id="7wJlKryIVbr1_fhA59LQ-12" value="" style="html=1;verticalAlign=bottom;labelBackgroundColor=none;endArrow=block;endFill=1;rounded=0;" edge="1" parent="7wJlKryIVbr1_fhA59LQ-1">
          <mxGeometry width="160" relative="1" as="geometry">
            <mxPoint x="359" y="147.5" as="sourcePoint" />
            <mxPoint x="259" y="147.5" as="targetPoint" />
          </mxGeometry>
        </mxCell>
        <mxCell id="7wJlKryIVbr1_fhA59LQ-13" value="1 : startInterface()" style="text;html=1;strokeColor=none;fillColor=none;align=center;verticalAlign=middle;whiteSpace=wrap;rounded=0;" vertex="1" parent="7wJlKryIVbr1_fhA59LQ-1">
          <mxGeometry x="240" y="147.5" width="150" height="30" as="geometry" />
        </mxCell>
        <mxCell id="7wJlKryIVbr1_fhA59LQ-14" value="2. showApplyInfo()" style="text;html=1;strokeColor=none;fillColor=none;align=center;verticalAlign=middle;whiteSpace=wrap;rounded=0;" vertex="1" parent="7wJlKryIVbr1_fhA59LQ-1">
          <mxGeometry x="11" y="61.5" width="150" height="30" as="geometry" />
        </mxCell>
        <mxCell id="7wJlKryIVbr1_fhA59LQ-15" value="2.1 : showApplyInfo()" style="text;html=1;strokeColor=none;fillColor=none;align=center;verticalAlign=middle;whiteSpace=wrap;rounded=0;" vertex="1" parent="7wJlKryIVbr1_fhA59LQ-1">
          <mxGeometry x="232" y="62.5" width="150" height="30" as="geometry" />
        </mxCell>
        <mxCell id="7wJlKryIVbr1_fhA59LQ-16" value="2.1.1 : *[For all ApplyInfos]:&lt;br&gt;&amp;nbsp; showApplyInfo()" style="text;html=1;strokeColor=none;fillColor=none;align=center;verticalAlign=middle;whiteSpace=wrap;rounded=0;" vertex="1" parent="7wJlKryIVbr1_fhA59LQ-1">
          <mxGeometry x="503" y="50" width="213" height="30" as="geometry" />
        </mxCell>
        <mxCell id="7wJlKryIVbr1_fhA59LQ-17" value=":ApplyInfo" style="fontStyle=1;whiteSpace=wrap;html=1;" vertex="1" parent="7wJlKryIVbr1_fhA59LQ-1">
          <mxGeometry x="470" y="250" width="140" height="30" as="geometry" />
        </mxCell>
        <mxCell id="7wJlKryIVbr1_fhA59LQ-18" value="" style="endArrow=none;startArrow=none;endFill=0;startFill=0;endSize=8;html=1;verticalAlign=bottom;labelBackgroundColor=none;strokeWidth=3;rounded=0;entryX=0.556;entryY=0.989;entryDx=0;entryDy=0;exitX=1;exitY=0.5;exitDx=0;exitDy=0;entryPerimeter=0;" edge="1" parent="7wJlKryIVbr1_fhA59LQ-1" source="7wJlKryIVbr1_fhA59LQ-17" target="7wJlKryIVbr1_fhA59LQ-4">
          <mxGeometry width="160" relative="1" as="geometry">
            <mxPoint x="513" y="127" as="sourcePoint" />
            <mxPoint x="653" y="128" as="targetPoint" />
          </mxGeometry>
        </mxCell>
        <mxCell id="7wJlKryIVbr1_fhA59LQ-19" value="2.1.2 :&amp;nbsp; showInfo()" style="text;html=1;strokeColor=none;fillColor=none;align=center;verticalAlign=middle;whiteSpace=wrap;rounded=0;" vertex="1" parent="7wJlKryIVbr1_fhA59LQ-1">
          <mxGeometry x="470" y="180" width="213" height="30" as="geometry" />
        </mxCell>
        <mxCell id="7wJlKryIVbr1_fhA59LQ-20" value="" style="html=1;verticalAlign=bottom;labelBackgroundColor=none;endArrow=block;endFill=1;rounded=0;" edge="1" parent="7wJlKryIVbr1_fhA59LQ-1">
          <mxGeometry width="160" relative="1" as="geometry">
            <mxPoint x="690" y="150" as="sourcePoint" />
            <mxPoint x="609" y="240" as="targetPoint" />
          </mxGeometry>
        </mxCell>
        <mxCell id="7wJlKryIVbr1_fhA59LQ-21" value="&lt;b&gt;sd&amp;nbsp; cancelApplyInfo&lt;/b&gt;" style="shape=umlFrame;whiteSpace=wrap;html=1;pointerEvents=0;recursiveResize=0;container=1;collapsible=0;width=160;" vertex="1" parent="1">
          <mxGeometry x="67" y="460" width="810" height="360" as="geometry" />
        </mxCell>
        <mxCell id="7wJlKryIVbr1_fhA59LQ-22" value=":cancelApplyInfoUI" style="fontStyle=1;whiteSpace=wrap;html=1;" vertex="1" parent="7wJlKryIVbr1_fhA59LQ-21">
          <mxGeometry x="113" y="130.5" width="140" height="30" as="geometry" />
        </mxCell>
        <mxCell id="7wJlKryIVbr1_fhA59LQ-23" value=":ApplyInfo" style="fontStyle=1;whiteSpace=wrap;html=1;" vertex="1" parent="7wJlKryIVbr1_fhA59LQ-21">
          <mxGeometry x="650" y="130.5" width="140" height="30" as="geometry" />
        </mxCell>
        <mxCell id="7wJlKryIVbr1_fhA59LQ-24" value=":cancelApplyInfo" style="fontStyle=1;whiteSpace=wrap;html=1;" vertex="1" parent="7wJlKryIVbr1_fhA59LQ-21">
          <mxGeometry x="363" y="130.5" width="140" height="30" as="geometry" />
        </mxCell>
        <mxCell id="7wJlKryIVbr1_fhA59LQ-25" value="" style="endArrow=none;startArrow=none;endFill=0;startFill=0;endSize=8;html=1;verticalAlign=bottom;labelBackgroundColor=none;strokeWidth=3;rounded=0;exitX=0.5;exitY=0.5;exitDx=0;exitDy=0;exitPerimeter=0;" edge="1" parent="7wJlKryIVbr1_fhA59LQ-21" source="7wJlKryIVbr1_fhA59LQ-41">
          <mxGeometry width="160" relative="1" as="geometry">
            <mxPoint x="-57" y="143.24999999999977" as="sourcePoint" />
            <mxPoint x="113" y="149" as="targetPoint" />
          </mxGeometry>
        </mxCell>
        <mxCell id="7wJlKryIVbr1_fhA59LQ-26" value="" style="endArrow=none;startArrow=none;endFill=0;startFill=0;endSize=8;html=1;verticalAlign=bottom;labelBackgroundColor=none;strokeWidth=3;rounded=0;entryX=0;entryY=0.5;entryDx=0;entryDy=0;" edge="1" parent="7wJlKryIVbr1_fhA59LQ-21" target="7wJlKryIVbr1_fhA59LQ-24">
          <mxGeometry width="160" relative="1" as="geometry">
            <mxPoint x="253" y="145" as="sourcePoint" />
            <mxPoint x="360" y="145" as="targetPoint" />
          </mxGeometry>
        </mxCell>
        <mxCell id="7wJlKryIVbr1_fhA59LQ-27" value="" style="html=1;verticalAlign=bottom;labelBackgroundColor=none;endArrow=block;endFill=1;rounded=0;" edge="1" parent="7wJlKryIVbr1_fhA59LQ-21">
          <mxGeometry width="160" relative="1" as="geometry">
            <mxPoint x="60" y="123" as="sourcePoint" />
            <mxPoint x="104" y="123" as="targetPoint" />
          </mxGeometry>
        </mxCell>
        <mxCell id="7wJlKryIVbr1_fhA59LQ-28" value="" style="html=1;verticalAlign=bottom;labelBackgroundColor=none;endArrow=block;endFill=1;rounded=0;" edge="1" parent="7wJlKryIVbr1_fhA59LQ-21">
          <mxGeometry width="160" relative="1" as="geometry">
            <mxPoint x="260" y="121" as="sourcePoint" />
            <mxPoint x="357" y="121" as="targetPoint" />
          </mxGeometry>
        </mxCell>
        <mxCell id="7wJlKryIVbr1_fhA59LQ-29" value="" style="html=1;verticalAlign=bottom;labelBackgroundColor=none;endArrow=block;endFill=1;rounded=0;" edge="1" parent="7wJlKryIVbr1_fhA59LQ-21">
          <mxGeometry width="160" relative="1" as="geometry">
            <mxPoint x="359" y="175.5" as="sourcePoint" />
            <mxPoint x="259" y="175.5" as="targetPoint" />
          </mxGeometry>
        </mxCell>
        <mxCell id="7wJlKryIVbr1_fhA59LQ-30" value="2 : startInterface()" style="text;html=1;strokeColor=none;fillColor=none;align=center;verticalAlign=middle;whiteSpace=wrap;rounded=0;" vertex="1" parent="7wJlKryIVbr1_fhA59LQ-21">
          <mxGeometry x="240" y="175.5" width="150" height="30" as="geometry" />
        </mxCell>
        <mxCell id="7wJlKryIVbr1_fhA59LQ-31" value="1.1 :&amp;nbsp;&amp;nbsp; showInfo()" style="text;html=1;strokeColor=none;fillColor=none;align=center;verticalAlign=middle;whiteSpace=wrap;rounded=0;" vertex="1" parent="7wJlKryIVbr1_fhA59LQ-21">
          <mxGeometry x="560" y="220" width="213" height="30" as="geometry" />
        </mxCell>
        <mxCell id="7wJlKryIVbr1_fhA59LQ-32" value=":GenMember" style="fontStyle=1;whiteSpace=wrap;html=1;" vertex="1" parent="7wJlKryIVbr1_fhA59LQ-21">
          <mxGeometry x="363" y="280" width="140" height="30" as="geometry" />
        </mxCell>
        <mxCell id="7wJlKryIVbr1_fhA59LQ-33" value="" style="endArrow=none;startArrow=none;endFill=0;startFill=0;endSize=8;html=1;verticalAlign=bottom;labelBackgroundColor=none;strokeWidth=3;rounded=0;exitX=0.5;exitY=1;exitDx=0;exitDy=0;entryX=0.5;entryY=0;entryDx=0;entryDy=0;" edge="1" parent="7wJlKryIVbr1_fhA59LQ-21" source="7wJlKryIVbr1_fhA59LQ-24" target="7wJlKryIVbr1_fhA59LQ-32">
          <mxGeometry width="160" relative="1" as="geometry">
            <mxPoint x="513" y="155" as="sourcePoint" />
            <mxPoint x="653" y="156" as="targetPoint" />
          </mxGeometry>
        </mxCell>
        <mxCell id="7wJlKryIVbr1_fhA59LQ-34" value="" style="endArrow=classic;html=1;rounded=0;" edge="1" parent="7wJlKryIVbr1_fhA59LQ-21">
          <mxGeometry width="50" height="50" relative="1" as="geometry">
            <mxPoint x="405" y="190" as="sourcePoint" />
            <mxPoint x="405" y="270" as="targetPoint" />
          </mxGeometry>
        </mxCell>
        <mxCell id="7wJlKryIVbr1_fhA59LQ-35" value="" style="endArrow=none;startArrow=none;endFill=0;startFill=0;endSize=8;html=1;verticalAlign=bottom;labelBackgroundColor=none;strokeWidth=3;rounded=0;entryX=0;entryY=0.5;entryDx=0;entryDy=0;exitX=1;exitY=0.5;exitDx=0;exitDy=0;" edge="1" parent="7wJlKryIVbr1_fhA59LQ-21" source="7wJlKryIVbr1_fhA59LQ-32" target="7wJlKryIVbr1_fhA59LQ-23">
          <mxGeometry width="160" relative="1" as="geometry">
            <mxPoint x="513" y="155" as="sourcePoint" />
            <mxPoint x="653" y="156" as="targetPoint" />
          </mxGeometry>
        </mxCell>
        <mxCell id="7wJlKryIVbr1_fhA59LQ-36" value="" style="endArrow=classic;html=1;rounded=0;" edge="1" parent="7wJlKryIVbr1_fhA59LQ-21">
          <mxGeometry width="50" height="50" relative="1" as="geometry">
            <mxPoint x="530" y="290" as="sourcePoint" />
            <mxPoint x="650" y="166.75" as="targetPoint" />
          </mxGeometry>
        </mxCell>
        <mxCell id="7wJlKryIVbr1_fhA59LQ-37" value="3.1 : cancelApplyInfo()" style="text;html=1;strokeColor=none;fillColor=none;align=center;verticalAlign=middle;whiteSpace=wrap;rounded=0;" vertex="1" parent="7wJlKryIVbr1_fhA59LQ-21">
          <mxGeometry x="223.5" y="90.5" width="129" height="30" as="geometry" />
        </mxCell>
        <mxCell id="7wJlKryIVbr1_fhA59LQ-38" value="3. caneclApplyInfo()" style="text;html=1;strokeColor=none;fillColor=none;align=center;verticalAlign=middle;whiteSpace=wrap;rounded=0;" vertex="1" parent="7wJlKryIVbr1_fhA59LQ-21">
          <mxGeometry x="10" y="89.5" width="150" height="30" as="geometry" />
        </mxCell>
        <mxCell id="7wJlKryIVbr1_fhA59LQ-39" value="3.1.1 : cancelApplyInfo()" style="text;html=1;strokeColor=none;fillColor=none;align=center;verticalAlign=middle;whiteSpace=wrap;rounded=0;" vertex="1" parent="7wJlKryIVbr1_fhA59LQ-21">
          <mxGeometry x="216" y="260" width="138" height="30" as="geometry" />
        </mxCell>
        <mxCell id="7wJlKryIVbr1_fhA59LQ-40" value="1 : *[For&amp;nbsp; all ApplyInfos]:&lt;br&gt;&amp;nbsp; showApplyInfo()" style="text;html=1;strokeColor=none;fillColor=none;align=center;verticalAlign=middle;whiteSpace=wrap;rounded=0;" vertex="1" parent="7wJlKryIVbr1_fhA59LQ-21">
          <mxGeometry x="190" y="227" width="213" height="30" as="geometry" />
        </mxCell>
        <mxCell id="7wJlKryIVbr1_fhA59LQ-41" value="GenMember" style="shape=umlActor;verticalLabelPosition=bottom;verticalAlign=top;html=1;outlineConnect=0;" vertex="1" parent="7wJlKryIVbr1_fhA59LQ-21">
          <mxGeometry x="20.5" y="130.5" width="26" height="42.5" as="geometry" />
        </mxCell>
        <mxCell id="7wJlKryIVbr1_fhA59LQ-42" value="3.1.2 : [close==false]&lt;br&gt;&amp;nbsp; ~ApplyInfo()" style="text;html=1;strokeColor=none;fillColor=none;align=center;verticalAlign=middle;whiteSpace=wrap;rounded=0;" vertex="1" parent="7wJlKryIVbr1_fhA59LQ-21">
          <mxGeometry x="531.5" y="250" width="270" height="30" as="geometry" />
        </mxCell>
        <mxCell id="7wJlKryIVbr1_fhA59LQ-43" value="&lt;b&gt;sd&amp;nbsp; deleteApplyInfo&lt;/b&gt;" style="shape=umlFrame;whiteSpace=wrap;html=1;pointerEvents=0;recursiveResize=0;container=1;collapsible=0;width=160;" vertex="1" parent="1">
          <mxGeometry x="67" y="917" width="823" height="360" as="geometry" />
        </mxCell>
        <mxCell id="7wJlKryIVbr1_fhA59LQ-44" value="GenMember" style="shape=umlActor;verticalLabelPosition=bottom;verticalAlign=top;html=1;outlineConnect=0;" vertex="1" parent="7wJlKryIVbr1_fhA59LQ-43">
          <mxGeometry x="20" y="124.25" width="26" height="42.5" as="geometry" />
        </mxCell>
        <mxCell id="7wJlKryIVbr1_fhA59LQ-45" value=":deleteApplyInfoUI" style="fontStyle=1;whiteSpace=wrap;html=1;" vertex="1" parent="7wJlKryIVbr1_fhA59LQ-43">
          <mxGeometry x="113" y="130.5" width="140" height="30" as="geometry" />
        </mxCell>
        <mxCell id="7wJlKryIVbr1_fhA59LQ-46" value=":ApplyInfo" style="fontStyle=1;whiteSpace=wrap;html=1;" vertex="1" parent="7wJlKryIVbr1_fhA59LQ-43">
          <mxGeometry x="670" y="130.5" width="140" height="30" as="geometry" />
        </mxCell>
        <mxCell id="7wJlKryIVbr1_fhA59LQ-47" value=":deleteApplyInfo" style="fontStyle=1;whiteSpace=wrap;html=1;" vertex="1" parent="7wJlKryIVbr1_fhA59LQ-43">
          <mxGeometry x="363" y="130.5" width="140" height="30" as="geometry" />
        </mxCell>
        <mxCell id="7wJlKryIVbr1_fhA59LQ-48" value="" style="endArrow=none;startArrow=none;endFill=0;startFill=0;endSize=8;html=1;verticalAlign=bottom;labelBackgroundColor=none;strokeWidth=3;rounded=0;" edge="1" parent="7wJlKryIVbr1_fhA59LQ-43">
          <mxGeometry width="160" relative="1" as="geometry">
            <mxPoint x="53" y="145" as="sourcePoint" />
            <mxPoint x="113" y="145" as="targetPoint" />
          </mxGeometry>
        </mxCell>
        <mxCell id="7wJlKryIVbr1_fhA59LQ-49" value="" style="endArrow=none;startArrow=none;endFill=0;startFill=0;endSize=8;html=1;verticalAlign=bottom;labelBackgroundColor=none;strokeWidth=3;rounded=0;entryX=0;entryY=0.5;entryDx=0;entryDy=0;" edge="1" parent="7wJlKryIVbr1_fhA59LQ-43" target="7wJlKryIVbr1_fhA59LQ-47">
          <mxGeometry width="160" relative="1" as="geometry">
            <mxPoint x="253" y="145" as="sourcePoint" />
            <mxPoint x="360" y="145" as="targetPoint" />
          </mxGeometry>
        </mxCell>
        <mxCell id="7wJlKryIVbr1_fhA59LQ-50" value="" style="html=1;verticalAlign=bottom;labelBackgroundColor=none;endArrow=block;endFill=1;rounded=0;" edge="1" parent="7wJlKryIVbr1_fhA59LQ-43">
          <mxGeometry width="160" relative="1" as="geometry">
            <mxPoint x="60" y="123" as="sourcePoint" />
            <mxPoint x="104" y="123" as="targetPoint" />
          </mxGeometry>
        </mxCell>
        <mxCell id="7wJlKryIVbr1_fhA59LQ-51" value="" style="html=1;verticalAlign=bottom;labelBackgroundColor=none;endArrow=block;endFill=1;rounded=0;" edge="1" parent="7wJlKryIVbr1_fhA59LQ-43">
          <mxGeometry width="160" relative="1" as="geometry">
            <mxPoint x="260" y="121" as="sourcePoint" />
            <mxPoint x="357" y="121" as="targetPoint" />
          </mxGeometry>
        </mxCell>
        <mxCell id="7wJlKryIVbr1_fhA59LQ-52" value="" style="html=1;verticalAlign=bottom;labelBackgroundColor=none;endArrow=block;endFill=1;rounded=0;" edge="1" parent="7wJlKryIVbr1_fhA59LQ-43">
          <mxGeometry width="160" relative="1" as="geometry">
            <mxPoint x="359" y="175.5" as="sourcePoint" />
            <mxPoint x="259" y="175.5" as="targetPoint" />
          </mxGeometry>
        </mxCell>
        <mxCell id="7wJlKryIVbr1_fhA59LQ-53" value="1 : startInterface()" style="text;html=1;strokeColor=none;fillColor=none;align=center;verticalAlign=middle;whiteSpace=wrap;rounded=0;" vertex="1" parent="7wJlKryIVbr1_fhA59LQ-43">
          <mxGeometry x="240" y="175.5" width="150" height="30" as="geometry" />
        </mxCell>
        <mxCell id="7wJlKryIVbr1_fhA59LQ-54" value="2.1 : showApplyInfo()" style="text;html=1;strokeColor=none;fillColor=none;align=center;verticalAlign=middle;whiteSpace=wrap;rounded=0;" vertex="1" parent="7wJlKryIVbr1_fhA59LQ-43">
          <mxGeometry x="220" y="61.5" width="150" height="30" as="geometry" />
        </mxCell>
        <mxCell id="7wJlKryIVbr1_fhA59LQ-55" value="2. selectApplyInfo()" style="text;html=1;strokeColor=none;fillColor=none;align=center;verticalAlign=middle;whiteSpace=wrap;rounded=0;" vertex="1" parent="7wJlKryIVbr1_fhA59LQ-43">
          <mxGeometry x="21.5" y="61.5" width="129" height="30" as="geometry" />
        </mxCell>
        <mxCell id="7wJlKryIVbr1_fhA59LQ-56" value="3. deleteApplyInfo()" style="text;html=1;strokeColor=none;fillColor=none;align=center;verticalAlign=middle;whiteSpace=wrap;rounded=0;" vertex="1" parent="7wJlKryIVbr1_fhA59LQ-43">
          <mxGeometry x="11" y="89.5" width="150" height="30" as="geometry" />
        </mxCell>
        <mxCell id="7wJlKryIVbr1_fhA59LQ-57" value=":GenMember" style="fontStyle=1;whiteSpace=wrap;html=1;" vertex="1" parent="7wJlKryIVbr1_fhA59LQ-43">
          <mxGeometry x="359.5" y="310" width="140" height="30" as="geometry" />
        </mxCell>
        <mxCell id="7wJlKryIVbr1_fhA59LQ-58" value="" style="endArrow=none;startArrow=none;endFill=0;startFill=0;endSize=8;html=1;verticalAlign=bottom;labelBackgroundColor=none;strokeWidth=3;rounded=0;exitX=0.5;exitY=1;exitDx=0;exitDy=0;entryX=0.5;entryY=0;entryDx=0;entryDy=0;" edge="1" parent="7wJlKryIVbr1_fhA59LQ-43" source="7wJlKryIVbr1_fhA59LQ-47" target="7wJlKryIVbr1_fhA59LQ-57">
          <mxGeometry width="160" relative="1" as="geometry">
            <mxPoint x="513" y="155" as="sourcePoint" />
            <mxPoint x="653" y="156" as="targetPoint" />
          </mxGeometry>
        </mxCell>
        <mxCell id="7wJlKryIVbr1_fhA59LQ-59" value="" style="endArrow=none;startArrow=none;endFill=0;startFill=0;endSize=8;html=1;verticalAlign=bottom;labelBackgroundColor=none;strokeWidth=3;rounded=0;entryX=0;entryY=0.5;entryDx=0;entryDy=0;exitX=1;exitY=0.5;exitDx=0;exitDy=0;" edge="1" parent="7wJlKryIVbr1_fhA59LQ-43" source="7wJlKryIVbr1_fhA59LQ-57" target="7wJlKryIVbr1_fhA59LQ-46">
          <mxGeometry width="160" relative="1" as="geometry">
            <mxPoint x="513" y="155" as="sourcePoint" />
            <mxPoint x="653" y="156" as="targetPoint" />
          </mxGeometry>
        </mxCell>
        <mxCell id="7wJlKryIVbr1_fhA59LQ-60" value="3.1 : deleteApplyInfo()" style="text;html=1;strokeColor=none;fillColor=none;align=center;verticalAlign=middle;whiteSpace=wrap;rounded=0;" vertex="1" parent="7wJlKryIVbr1_fhA59LQ-43">
          <mxGeometry x="230.5" y="89.5" width="129" height="30" as="geometry" />
        </mxCell>
        <mxCell id="7wJlKryIVbr1_fhA59LQ-61" value="3.1.2 : [close==true]&lt;br&gt;&amp;nbsp; ~ApplyInfo()" style="text;html=1;strokeColor=none;fillColor=none;align=center;verticalAlign=middle;whiteSpace=wrap;rounded=0;" vertex="1" parent="7wJlKryIVbr1_fhA59LQ-43">
          <mxGeometry x="552" y="262" width="270" height="30" as="geometry" />
        </mxCell>
        <mxCell id="7wJlKryIVbr1_fhA59LQ-62" value="" style="endArrow=classic;html=1;rounded=0;" edge="1" parent="7wJlKryIVbr1_fhA59LQ-43">
          <mxGeometry width="50" height="50" relative="1" as="geometry">
            <mxPoint x="559" y="290" as="sourcePoint" />
            <mxPoint x="649" y="190" as="targetPoint" />
          </mxGeometry>
        </mxCell>
        <mxCell id="7wJlKryIVbr1_fhA59LQ-63" value="3.1.1 : deleteApplyInfo()" style="text;html=1;strokeColor=none;fillColor=none;align=center;verticalAlign=middle;whiteSpace=wrap;rounded=0;" vertex="1" parent="7wJlKryIVbr1_fhA59LQ-43">
          <mxGeometry x="227" y="262" width="138" height="30" as="geometry" />
        </mxCell>
        <mxCell id="7wJlKryIVbr1_fhA59LQ-64" value="2.1.2 :&amp;nbsp; showInfo()" style="text;html=1;strokeColor=none;fillColor=none;align=center;verticalAlign=middle;whiteSpace=wrap;rounded=0;" vertex="1" parent="7wJlKryIVbr1_fhA59LQ-43">
          <mxGeometry x="575" y="232" width="213" height="30" as="geometry" />
        </mxCell>
        <mxCell id="7wJlKryIVbr1_fhA59LQ-65" value="2.1.1 : *[For all ApplyInfos]:&lt;br&gt;&amp;nbsp; showApplyInfo()" style="text;html=1;strokeColor=none;fillColor=none;align=center;verticalAlign=middle;whiteSpace=wrap;rounded=0;" vertex="1" parent="7wJlKryIVbr1_fhA59LQ-43">
          <mxGeometry x="200" y="232" width="213" height="30" as="geometry" />
        </mxCell>
        <mxCell id="7wJlKryIVbr1_fhA59LQ-66" value="&lt;b&gt;sd&amp;nbsp; getRecruitStatus&lt;/b&gt;" style="shape=umlFrame;whiteSpace=wrap;html=1;pointerEvents=0;recursiveResize=0;container=1;collapsible=0;width=160;" vertex="1" parent="1">
          <mxGeometry x="60" y="1780" width="820" height="350" as="geometry" />
        </mxCell>
        <mxCell id="7wJlKryIVbr1_fhA59LQ-67" value="CompMember" style="shape=umlActor;verticalLabelPosition=bottom;verticalAlign=top;html=1;outlineConnect=0;" vertex="1" parent="7wJlKryIVbr1_fhA59LQ-66">
          <mxGeometry x="26" y="124.25" width="26" height="42.5" as="geometry" />
        </mxCell>
        <mxCell id="7wJlKryIVbr1_fhA59LQ-68" value=":&lt;b style=&quot;border-color: var(--border-color);&quot;&gt;getApplyStatusUI&lt;/b&gt;" style="fontStyle=1;whiteSpace=wrap;html=1;" vertex="1" parent="7wJlKryIVbr1_fhA59LQ-66">
          <mxGeometry x="113" y="130.5" width="140" height="30" as="geometry" />
        </mxCell>
        <mxCell id="7wJlKryIVbr1_fhA59LQ-69" value=":&lt;b style=&quot;border-color: var(--border-color);&quot;&gt;getApplyStatus&lt;/b&gt;" style="fontStyle=1;whiteSpace=wrap;html=1;" vertex="1" parent="7wJlKryIVbr1_fhA59LQ-66">
          <mxGeometry x="363" y="130.5" width="140" height="30" as="geometry" />
        </mxCell>
        <mxCell id="7wJlKryIVbr1_fhA59LQ-70" value="" style="endArrow=none;startArrow=none;endFill=0;startFill=0;endSize=8;html=1;verticalAlign=bottom;labelBackgroundColor=none;strokeWidth=3;rounded=0;" edge="1" parent="7wJlKryIVbr1_fhA59LQ-66">
          <mxGeometry width="160" relative="1" as="geometry">
            <mxPoint x="53" y="145" as="sourcePoint" />
            <mxPoint x="113" y="145" as="targetPoint" />
          </mxGeometry>
        </mxCell>
        <mxCell id="7wJlKryIVbr1_fhA59LQ-71" value="" style="endArrow=none;startArrow=none;endFill=0;startFill=0;endSize=8;html=1;verticalAlign=bottom;labelBackgroundColor=none;strokeWidth=3;rounded=0;entryX=0;entryY=0.5;entryDx=0;entryDy=0;" edge="1" parent="7wJlKryIVbr1_fhA59LQ-66" target="7wJlKryIVbr1_fhA59LQ-69">
          <mxGeometry width="160" relative="1" as="geometry">
            <mxPoint x="253" y="145" as="sourcePoint" />
            <mxPoint x="360" y="145" as="targetPoint" />
          </mxGeometry>
        </mxCell>
        <mxCell id="7wJlKryIVbr1_fhA59LQ-72" value="" style="html=1;verticalAlign=bottom;labelBackgroundColor=none;endArrow=block;endFill=1;rounded=0;" edge="1" parent="7wJlKryIVbr1_fhA59LQ-66">
          <mxGeometry width="160" relative="1" as="geometry">
            <mxPoint x="60" y="123" as="sourcePoint" />
            <mxPoint x="104" y="123" as="targetPoint" />
          </mxGeometry>
        </mxCell>
        <mxCell id="7wJlKryIVbr1_fhA59LQ-73" value="" style="html=1;verticalAlign=bottom;labelBackgroundColor=none;endArrow=block;endFill=1;rounded=0;" edge="1" parent="7wJlKryIVbr1_fhA59LQ-66">
          <mxGeometry width="160" relative="1" as="geometry">
            <mxPoint x="260" y="121" as="sourcePoint" />
            <mxPoint x="357" y="121" as="targetPoint" />
          </mxGeometry>
        </mxCell>
        <mxCell id="7wJlKryIVbr1_fhA59LQ-74" value="" style="html=1;verticalAlign=bottom;labelBackgroundColor=none;endArrow=block;endFill=1;rounded=0;" edge="1" parent="7wJlKryIVbr1_fhA59LQ-66">
          <mxGeometry width="160" relative="1" as="geometry">
            <mxPoint x="359" y="175.5" as="sourcePoint" />
            <mxPoint x="259" y="175.5" as="targetPoint" />
          </mxGeometry>
        </mxCell>
        <mxCell id="7wJlKryIVbr1_fhA59LQ-75" value="1 : startInterface()" style="text;html=1;strokeColor=none;fillColor=none;align=center;verticalAlign=middle;whiteSpace=wrap;rounded=0;" vertex="1" parent="7wJlKryIVbr1_fhA59LQ-66">
          <mxGeometry x="240" y="175.5" width="150" height="30" as="geometry" />
        </mxCell>
        <mxCell id="7wJlKryIVbr1_fhA59LQ-76" value="2. getRecruitStatus()" style="text;html=1;strokeColor=none;fillColor=none;align=center;verticalAlign=middle;whiteSpace=wrap;rounded=0;" vertex="1" parent="7wJlKryIVbr1_fhA59LQ-66">
          <mxGeometry x="11" y="80" width="150" height="30" as="geometry" />
        </mxCell>
        <mxCell id="7wJlKryIVbr1_fhA59LQ-77" value="2.1 : getRecruitStatus()" style="text;html=1;strokeColor=none;fillColor=none;align=center;verticalAlign=middle;whiteSpace=wrap;rounded=0;" vertex="1" parent="7wJlKryIVbr1_fhA59LQ-66">
          <mxGeometry x="230" y="80" width="150" height="30" as="geometry" />
        </mxCell>
        <mxCell id="7wJlKryIVbr1_fhA59LQ-78" value=":CompMember" style="fontStyle=1;whiteSpace=wrap;html=1;" vertex="1" parent="7wJlKryIVbr1_fhA59LQ-66">
          <mxGeometry x="660" y="130.5" width="140" height="30" as="geometry" />
        </mxCell>
        <mxCell id="7wJlKryIVbr1_fhA59LQ-79" value="" style="endArrow=none;startArrow=none;endFill=0;startFill=0;endSize=8;html=1;verticalAlign=bottom;labelBackgroundColor=none;strokeWidth=3;rounded=0;exitX=1;exitY=0.5;exitDx=0;exitDy=0;" edge="1" parent="7wJlKryIVbr1_fhA59LQ-66" source="7wJlKryIVbr1_fhA59LQ-69" target="7wJlKryIVbr1_fhA59LQ-78">
          <mxGeometry width="160" relative="1" as="geometry">
            <mxPoint x="513" y="155" as="sourcePoint" />
            <mxPoint x="653" y="156" as="targetPoint" />
          </mxGeometry>
        </mxCell>
        <mxCell id="7wJlKryIVbr1_fhA59LQ-80" value="" style="html=1;verticalAlign=bottom;labelBackgroundColor=none;endArrow=block;endFill=1;rounded=0;" edge="1" parent="7wJlKryIVbr1_fhA59LQ-66">
          <mxGeometry width="160" relative="1" as="geometry">
            <mxPoint x="540" y="124.25" as="sourcePoint" />
            <mxPoint x="637" y="124.25" as="targetPoint" />
          </mxGeometry>
        </mxCell>
        <mxCell id="7wJlKryIVbr1_fhA59LQ-81" value=":RecruitInfo" style="fontStyle=1;whiteSpace=wrap;html=1;" vertex="1" parent="7wJlKryIVbr1_fhA59LQ-66">
          <mxGeometry x="363" y="289" width="140" height="30" as="geometry" />
        </mxCell>
        <mxCell id="7wJlKryIVbr1_fhA59LQ-82" value="" style="endArrow=none;startArrow=none;endFill=0;startFill=0;endSize=8;html=1;verticalAlign=bottom;labelBackgroundColor=none;strokeWidth=3;rounded=0;exitX=0.5;exitY=0;exitDx=0;exitDy=0;entryX=0.5;entryY=1;entryDx=0;entryDy=0;" edge="1" parent="7wJlKryIVbr1_fhA59LQ-66" source="7wJlKryIVbr1_fhA59LQ-81" target="7wJlKryIVbr1_fhA59LQ-69">
          <mxGeometry width="160" relative="1" as="geometry">
            <mxPoint x="513" y="156" as="sourcePoint" />
            <mxPoint x="670" y="156" as="targetPoint" />
          </mxGeometry>
        </mxCell>
        <mxCell id="7wJlKryIVbr1_fhA59LQ-83" value="2.1.1 :&amp;nbsp;getRecruitDepartInfo()" style="text;html=1;strokeColor=none;fillColor=none;align=center;verticalAlign=middle;whiteSpace=wrap;rounded=0;" vertex="1" parent="7wJlKryIVbr1_fhA59LQ-66">
          <mxGeometry x="500" y="90" width="180" height="30" as="geometry" />
        </mxCell>
        <mxCell id="7wJlKryIVbr1_fhA59LQ-84" value="2.1.2 :&amp;nbsp;getRecruitCount()" style="text;html=1;strokeColor=none;fillColor=none;align=center;verticalAlign=middle;whiteSpace=wrap;rounded=0;" vertex="1" parent="7wJlKryIVbr1_fhA59LQ-66">
          <mxGeometry x="239" y="230" width="180" height="30" as="geometry" />
        </mxCell>
        <mxCell id="YyZxnlOSTFJfrtiwTY7d-2" value="" style="endArrow=classic;html=1;rounded=0;" edge="1" parent="7wJlKryIVbr1_fhA59LQ-66">
          <mxGeometry width="50" height="50" relative="1" as="geometry">
            <mxPoint x="409.17" y="205.5" as="sourcePoint" />
            <mxPoint x="409.17" y="275.5" as="targetPoint" />
          </mxGeometry>
        </mxCell>
        <mxCell id="7wJlKryIVbr1_fhA59LQ-85" value="&lt;b&gt;sd&amp;nbsp; getApplyCount&lt;/b&gt;" style="shape=umlFrame;whiteSpace=wrap;html=1;pointerEvents=0;recursiveResize=0;container=1;collapsible=0;width=160;" vertex="1" parent="1">
          <mxGeometry x="67" y="1347" width="810" height="343" as="geometry" />
        </mxCell>
        <mxCell id="7wJlKryIVbr1_fhA59LQ-86" value="GenMember" style="shape=umlActor;verticalLabelPosition=bottom;verticalAlign=top;html=1;outlineConnect=0;" vertex="1" parent="7wJlKryIVbr1_fhA59LQ-85">
          <mxGeometry x="20" y="124.25" width="26" height="42.5" as="geometry" />
        </mxCell>
        <mxCell id="7wJlKryIVbr1_fhA59LQ-87" value=":&lt;b style=&quot;border-color: var(--border-color);&quot;&gt;getApplyCount&lt;/b&gt;UI" style="fontStyle=1;whiteSpace=wrap;html=1;" vertex="1" parent="7wJlKryIVbr1_fhA59LQ-85">
          <mxGeometry x="113" y="130.5" width="140" height="30" as="geometry" />
        </mxCell>
        <mxCell id="7wJlKryIVbr1_fhA59LQ-88" value=":&lt;b style=&quot;border-color: var(--border-color);&quot;&gt;getApplyCount&lt;/b&gt;" style="fontStyle=1;whiteSpace=wrap;html=1;" vertex="1" parent="7wJlKryIVbr1_fhA59LQ-85">
          <mxGeometry x="363" y="130.5" width="140" height="30" as="geometry" />
        </mxCell>
        <mxCell id="7wJlKryIVbr1_fhA59LQ-89" value="" style="endArrow=none;startArrow=none;endFill=0;startFill=0;endSize=8;html=1;verticalAlign=bottom;labelBackgroundColor=none;strokeWidth=3;rounded=0;" edge="1" parent="7wJlKryIVbr1_fhA59LQ-85">
          <mxGeometry width="160" relative="1" as="geometry">
            <mxPoint x="53" y="145" as="sourcePoint" />
            <mxPoint x="113" y="145" as="targetPoint" />
          </mxGeometry>
        </mxCell>
        <mxCell id="7wJlKryIVbr1_fhA59LQ-90" value="" style="endArrow=none;startArrow=none;endFill=0;startFill=0;endSize=8;html=1;verticalAlign=bottom;labelBackgroundColor=none;strokeWidth=3;rounded=0;entryX=0;entryY=0.5;entryDx=0;entryDy=0;" edge="1" parent="7wJlKryIVbr1_fhA59LQ-85" target="7wJlKryIVbr1_fhA59LQ-88">
          <mxGeometry width="160" relative="1" as="geometry">
            <mxPoint x="253" y="145" as="sourcePoint" />
            <mxPoint x="360" y="145" as="targetPoint" />
          </mxGeometry>
        </mxCell>
        <mxCell id="7wJlKryIVbr1_fhA59LQ-91" value="" style="html=1;verticalAlign=bottom;labelBackgroundColor=none;endArrow=block;endFill=1;rounded=0;" edge="1" parent="7wJlKryIVbr1_fhA59LQ-85">
          <mxGeometry width="160" relative="1" as="geometry">
            <mxPoint x="60" y="123" as="sourcePoint" />
            <mxPoint x="104" y="123" as="targetPoint" />
          </mxGeometry>
        </mxCell>
        <mxCell id="7wJlKryIVbr1_fhA59LQ-92" value="" style="html=1;verticalAlign=bottom;labelBackgroundColor=none;endArrow=block;endFill=1;rounded=0;" edge="1" parent="7wJlKryIVbr1_fhA59LQ-85">
          <mxGeometry width="160" relative="1" as="geometry">
            <mxPoint x="260" y="121" as="sourcePoint" />
            <mxPoint x="357" y="121" as="targetPoint" />
          </mxGeometry>
        </mxCell>
        <mxCell id="7wJlKryIVbr1_fhA59LQ-93" value="" style="html=1;verticalAlign=bottom;labelBackgroundColor=none;endArrow=block;endFill=1;rounded=0;" edge="1" parent="7wJlKryIVbr1_fhA59LQ-85">
          <mxGeometry width="160" relative="1" as="geometry">
            <mxPoint x="359" y="175.5" as="sourcePoint" />
            <mxPoint x="259" y="175.5" as="targetPoint" />
          </mxGeometry>
        </mxCell>
        <mxCell id="7wJlKryIVbr1_fhA59LQ-94" value="1 : startInterface()" style="text;html=1;strokeColor=none;fillColor=none;align=center;verticalAlign=middle;whiteSpace=wrap;rounded=0;" vertex="1" parent="7wJlKryIVbr1_fhA59LQ-85">
          <mxGeometry x="240" y="175.5" width="150" height="30" as="geometry" />
        </mxCell>
        <mxCell id="7wJlKryIVbr1_fhA59LQ-95" value="2. getApplyCount()" style="text;html=1;strokeColor=none;fillColor=none;align=center;verticalAlign=middle;whiteSpace=wrap;rounded=0;" vertex="1" parent="7wJlKryIVbr1_fhA59LQ-85">
          <mxGeometry x="11" y="80" width="150" height="30" as="geometry" />
        </mxCell>
        <mxCell id="7wJlKryIVbr1_fhA59LQ-96" value="2.1 : getApplyCount()" style="text;html=1;strokeColor=none;fillColor=none;align=center;verticalAlign=middle;whiteSpace=wrap;rounded=0;" vertex="1" parent="7wJlKryIVbr1_fhA59LQ-85">
          <mxGeometry x="230" y="80" width="150" height="30" as="geometry" />
        </mxCell>
        <mxCell id="7wJlKryIVbr1_fhA59LQ-97" value=":GenMember" style="fontStyle=1;whiteSpace=wrap;html=1;" vertex="1" parent="7wJlKryIVbr1_fhA59LQ-85">
          <mxGeometry x="630" y="130.5" width="140" height="30" as="geometry" />
        </mxCell>
        <mxCell id="7wJlKryIVbr1_fhA59LQ-98" value="" style="endArrow=none;startArrow=none;endFill=0;startFill=0;endSize=8;html=1;verticalAlign=bottom;labelBackgroundColor=none;strokeWidth=3;rounded=0;exitX=1;exitY=0.5;exitDx=0;exitDy=0;entryX=0;entryY=0.5;entryDx=0;entryDy=0;" edge="1" parent="7wJlKryIVbr1_fhA59LQ-85" source="7wJlKryIVbr1_fhA59LQ-88" target="7wJlKryIVbr1_fhA59LQ-97">
          <mxGeometry width="160" relative="1" as="geometry">
            <mxPoint x="513" y="155" as="sourcePoint" />
            <mxPoint x="653" y="156" as="targetPoint" />
          </mxGeometry>
        </mxCell>
        <mxCell id="7wJlKryIVbr1_fhA59LQ-99" value="2.1.1 :&amp;nbsp;getMonthlyApplyCount()" style="text;html=1;strokeColor=none;fillColor=none;align=center;verticalAlign=middle;whiteSpace=wrap;rounded=0;" vertex="1" parent="7wJlKryIVbr1_fhA59LQ-85">
          <mxGeometry x="470" y="80" width="170" height="30" as="geometry" />
        </mxCell>
        <mxCell id="7wJlKryIVbr1_fhA59LQ-100" value="" style="html=1;verticalAlign=bottom;labelBackgroundColor=none;endArrow=block;endFill=1;rounded=0;" edge="1" parent="7wJlKryIVbr1_fhA59LQ-85">
          <mxGeometry width="160" relative="1" as="geometry">
            <mxPoint x="503" y="120" as="sourcePoint" />
            <mxPoint x="600" y="120" as="targetPoint" />
          </mxGeometry>
        </mxCell>
        <mxCell id="7wJlKryIVbr1_fhA59LQ-101" value=":ApplyInfo" style="fontStyle=1;whiteSpace=wrap;html=1;" vertex="1" parent="7wJlKryIVbr1_fhA59LQ-85">
          <mxGeometry x="362" y="287" width="140" height="30" as="geometry" />
        </mxCell>
        <mxCell id="7wJlKryIVbr1_fhA59LQ-102" value="" style="endArrow=none;startArrow=none;endFill=0;startFill=0;endSize=8;html=1;verticalAlign=bottom;labelBackgroundColor=none;strokeWidth=3;rounded=0;exitX=1;exitY=0.5;exitDx=0;exitDy=0;entryX=0;entryY=0.5;entryDx=0;entryDy=0;" edge="1" parent="7wJlKryIVbr1_fhA59LQ-85" source="7wJlKryIVbr1_fhA59LQ-88" target="7wJlKryIVbr1_fhA59LQ-97">
          <mxGeometry width="160" relative="1" as="geometry">
            <mxPoint x="570" y="1493" as="sourcePoint" />
            <mxPoint x="697" y="1493" as="targetPoint" />
            <Array as="points">
              <mxPoint x="573" y="146" />
            </Array>
          </mxGeometry>
        </mxCell>
        <mxCell id="7wJlKryIVbr1_fhA59LQ-103" value="" style="endArrow=none;startArrow=none;endFill=0;startFill=0;endSize=8;html=1;verticalAlign=bottom;labelBackgroundColor=none;strokeWidth=3;rounded=0;exitX=1;exitY=0.5;exitDx=0;exitDy=0;entryX=0;entryY=0.5;entryDx=0;entryDy=0;" edge="1" parent="7wJlKryIVbr1_fhA59LQ-85" source="7wJlKryIVbr1_fhA59LQ-88" target="7wJlKryIVbr1_fhA59LQ-97">
          <mxGeometry width="160" relative="1" as="geometry">
            <mxPoint x="570" y="1493" as="sourcePoint" />
            <mxPoint x="697" y="1493" as="targetPoint" />
            <Array as="points">
              <mxPoint x="543" y="146" />
              <mxPoint x="573" y="146" />
            </Array>
          </mxGeometry>
        </mxCell>
        <mxCell id="7wJlKryIVbr1_fhA59LQ-104" value="" style="endArrow=none;startArrow=none;endFill=0;startFill=0;endSize=8;html=1;verticalAlign=bottom;labelBackgroundColor=none;strokeWidth=3;rounded=0;entryX=0.5;entryY=1;entryDx=0;entryDy=0;exitX=0.5;exitY=0;exitDx=0;exitDy=0;" edge="1" parent="7wJlKryIVbr1_fhA59LQ-85">
          <mxGeometry width="160" relative="1" as="geometry">
            <mxPoint x="432" y="290" as="sourcePoint" />
            <mxPoint x="432.9999999999998" y="163.5" as="targetPoint" />
            <Array as="points">
              <mxPoint x="433" y="246" />
              <mxPoint x="433" y="216" />
            </Array>
          </mxGeometry>
        </mxCell>
        <mxCell id="7wJlKryIVbr1_fhA59LQ-105" value="" style="endArrow=classic;html=1;rounded=0;" edge="1" parent="7wJlKryIVbr1_fhA59LQ-85">
          <mxGeometry width="50" height="50" relative="1" as="geometry">
            <mxPoint x="404.23" y="205.5" as="sourcePoint" />
            <mxPoint x="404.23" y="275.5" as="targetPoint" />
          </mxGeometry>
        </mxCell>
        <mxCell id="7wJlKryIVbr1_fhA59LQ-106" value="2.1.2 : getDate()" style="text;html=1;strokeColor=none;fillColor=none;align=center;verticalAlign=middle;whiteSpace=wrap;rounded=0;" vertex="1" parent="7wJlKryIVbr1_fhA59LQ-85">
          <mxGeometry x="240" y="223" width="170" height="30" as="geometry" />
        </mxCell>
        <mxCell id="7wJlKryIVbr1_fhA59LQ-107" value="" style="endArrow=classic;html=1;rounded=0;" edge="1" parent="1">
          <mxGeometry width="50" height="50" relative="1" as="geometry">
            <mxPoint x="477" y="1140" as="sourcePoint" />
            <mxPoint x="477" y="1210" as="targetPoint" />
          </mxGeometry>
        </mxCell>
      </root>
    </mxGraphModel>
  </diagram>
  <diagram id="DnhA2v2H9wiocOB5rCQy" name="class_diagram_양현지">
    <mxGraphModel dx="794" dy="470" grid="1" gridSize="10" guides="1" tooltips="1" connect="1" arrows="1" fold="1" page="1" pageScale="1" pageWidth="827" pageHeight="1169" math="0" shadow="0">
      <root>
        <mxCell id="0" />
        <mxCell id="1" parent="0" />
        <mxCell id="_MFq3cLp7MEoQJSqoXY5-1" value="&amp;lt;&amp;lt;entity&amp;gt;&amp;gt;&lt;br&gt;&lt;b&gt;Member&lt;/b&gt;" style="swimlane;fontStyle=0;align=center;verticalAlign=top;childLayout=stackLayout;horizontal=1;startSize=40;horizontalStack=0;resizeParent=1;resizeParentMax=0;resizeLast=0;collapsible=0;marginBottom=0;html=1;whiteSpace=wrap;" vertex="1" parent="1">
          <mxGeometry x="500" y="970" width="160" height="48" as="geometry" />
        </mxCell>
        <mxCell id="_MFq3cLp7MEoQJSqoXY5-2" value="" style="line;strokeWidth=1;fillColor=none;align=left;verticalAlign=middle;spacingTop=-1;spacingLeft=3;spacingRight=3;rotatable=0;labelPosition=right;points=[];portConstraint=eastwest;" vertex="1" parent="_MFq3cLp7MEoQJSqoXY5-1">
          <mxGeometry y="40" width="160" height="8" as="geometry" />
        </mxCell>
        <mxCell id="_MFq3cLp7MEoQJSqoXY5-3" value="&amp;lt;&amp;lt;entity&amp;gt;&amp;gt;&lt;br&gt;&lt;b&gt;GenMember&lt;/b&gt;" style="swimlane;fontStyle=0;align=center;verticalAlign=top;childLayout=stackLayout;horizontal=1;startSize=40;horizontalStack=0;resizeParent=1;resizeParentMax=0;resizeLast=0;collapsible=0;marginBottom=0;html=1;whiteSpace=wrap;" vertex="1" parent="1">
          <mxGeometry x="390" y="1210" width="160" height="130" as="geometry" />
        </mxCell>
        <mxCell id="_MFq3cLp7MEoQJSqoXY5-5" value="" style="line;strokeWidth=1;fillColor=none;align=left;verticalAlign=middle;spacingTop=-1;spacingLeft=3;spacingRight=3;rotatable=0;labelPosition=right;points=[];portConstraint=eastwest;" vertex="1" parent="_MFq3cLp7MEoQJSqoXY5-3">
          <mxGeometry y="40" width="160" height="8" as="geometry" />
        </mxCell>
        <mxCell id="_MFq3cLp7MEoQJSqoXY5-6" value="showApplyInfo()&lt;br&gt;cancelApplyInfo()&lt;br&gt;deleteApplyInfo()&lt;br&gt;getMonthlyApplyCount()" style="text;html=1;strokeColor=none;fillColor=none;align=left;verticalAlign=middle;spacingLeft=4;spacingRight=4;overflow=hidden;rotatable=0;points=[[0,0.5],[1,0.5]];portConstraint=eastwest;whiteSpace=wrap;" vertex="1" parent="_MFq3cLp7MEoQJSqoXY5-3">
          <mxGeometry y="48" width="160" height="82" as="geometry" />
        </mxCell>
        <mxCell id="_MFq3cLp7MEoQJSqoXY5-7" value="&amp;lt;&amp;lt;entity&amp;gt;&amp;gt;&lt;br&gt;&lt;b&gt;CompMember&lt;/b&gt;" style="swimlane;fontStyle=0;align=center;verticalAlign=top;childLayout=stackLayout;horizontal=1;startSize=40;horizontalStack=0;resizeParent=1;resizeParentMax=0;resizeLast=0;collapsible=0;marginBottom=0;html=1;whiteSpace=wrap;" vertex="1" parent="1">
          <mxGeometry x="590" y="1210" width="160" height="100" as="geometry" />
        </mxCell>
        <mxCell id="_MFq3cLp7MEoQJSqoXY5-9" value="" style="line;strokeWidth=1;fillColor=none;align=left;verticalAlign=middle;spacingTop=-1;spacingLeft=3;spacingRight=3;rotatable=0;labelPosition=right;points=[];portConstraint=eastwest;" vertex="1" parent="_MFq3cLp7MEoQJSqoXY5-7">
          <mxGeometry y="40" width="160" height="8" as="geometry" />
        </mxCell>
        <mxCell id="_MFq3cLp7MEoQJSqoXY5-10" value="getRecruitDepartInfo()" style="text;html=1;strokeColor=none;fillColor=none;align=left;verticalAlign=middle;spacingLeft=4;spacingRight=4;overflow=hidden;rotatable=0;points=[[0,0.5],[1,0.5]];portConstraint=eastwest;whiteSpace=wrap;" vertex="1" parent="_MFq3cLp7MEoQJSqoXY5-7">
          <mxGeometry y="48" width="160" height="52" as="geometry" />
        </mxCell>
        <mxCell id="_MFq3cLp7MEoQJSqoXY5-11" value="" style="endArrow=block;endSize=16;endFill=0;html=1;rounded=0;exitX=0.5;exitY=0;exitDx=0;exitDy=0;entryX=0.372;entryY=0.976;entryDx=0;entryDy=0;entryPerimeter=0;" edge="1" parent="1" source="_MFq3cLp7MEoQJSqoXY5-3">
          <mxGeometry width="160" relative="1" as="geometry">
            <mxPoint x="550" y="1200" as="sourcePoint" />
            <mxPoint x="549.52" y="1028.5120000000002" as="targetPoint" />
          </mxGeometry>
        </mxCell>
        <mxCell id="_MFq3cLp7MEoQJSqoXY5-12" value="" style="endArrow=block;endSize=16;endFill=0;html=1;rounded=0;exitX=0.5;exitY=0;exitDx=0;exitDy=0;entryX=0.625;entryY=1;entryDx=0;entryDy=0;entryPerimeter=0;" edge="1" parent="1" source="_MFq3cLp7MEoQJSqoXY5-7">
          <mxGeometry width="160" relative="1" as="geometry">
            <mxPoint x="690" y="1070" as="sourcePoint" />
            <mxPoint x="590" y="1030" as="targetPoint" />
            <Array as="points" />
          </mxGeometry>
        </mxCell>
        <mxCell id="_MFq3cLp7MEoQJSqoXY5-13" value="&amp;lt;&amp;lt;entity&amp;gt;&amp;gt;&lt;br&gt;&lt;b&gt;RecruitInfo&lt;/b&gt;" style="swimlane;fontStyle=0;align=center;verticalAlign=top;childLayout=stackLayout;horizontal=1;startSize=40;horizontalStack=0;resizeParent=1;resizeParentMax=0;resizeLast=0;collapsible=0;marginBottom=0;html=1;whiteSpace=wrap;" vertex="1" parent="1">
          <mxGeometry x="580" y="1500" width="160" height="160" as="geometry" />
        </mxCell>
        <mxCell id="_MFq3cLp7MEoQJSqoXY5-14" value="companyName&lt;br&gt;departName&lt;br&gt;numOfApply&lt;br&gt;endDate" style="text;html=1;strokeColor=none;fillColor=none;align=left;verticalAlign=middle;spacingLeft=4;spacingRight=4;overflow=hidden;rotatable=0;points=[[0,0.5],[1,0.5]];portConstraint=eastwest;whiteSpace=wrap;" vertex="1" parent="_MFq3cLp7MEoQJSqoXY5-13">
          <mxGeometry y="40" width="160" height="60" as="geometry" />
        </mxCell>
        <mxCell id="_MFq3cLp7MEoQJSqoXY5-15" value="" style="line;strokeWidth=1;fillColor=none;align=left;verticalAlign=middle;spacingTop=-1;spacingLeft=3;spacingRight=3;rotatable=0;labelPosition=right;points=[];portConstraint=eastwest;" vertex="1" parent="_MFq3cLp7MEoQJSqoXY5-13">
          <mxGeometry y="100" width="160" height="8" as="geometry" />
        </mxCell>
        <mxCell id="_MFq3cLp7MEoQJSqoXY5-16" value="getRecruitCount()" style="text;html=1;strokeColor=none;fillColor=none;align=left;verticalAlign=middle;spacingLeft=4;spacingRight=4;overflow=hidden;rotatable=0;points=[[0,0.5],[1,0.5]];portConstraint=eastwest;whiteSpace=wrap;" vertex="1" parent="_MFq3cLp7MEoQJSqoXY5-13">
          <mxGeometry y="108" width="160" height="52" as="geometry" />
        </mxCell>
        <mxCell id="_MFq3cLp7MEoQJSqoXY5-17" value="&amp;lt;&amp;lt;entity&amp;gt;&amp;gt;&lt;br&gt;&lt;b&gt;ApplyInfo&lt;/b&gt;" style="swimlane;fontStyle=0;align=center;verticalAlign=top;childLayout=stackLayout;horizontal=1;startSize=40;horizontalStack=0;resizeParent=1;resizeParentMax=0;resizeLast=0;collapsible=0;marginBottom=0;html=1;whiteSpace=wrap;" vertex="1" parent="1">
          <mxGeometry x="380" y="1500" width="160" height="160" as="geometry" />
        </mxCell>
        <mxCell id="_MFq3cLp7MEoQJSqoXY5-18" value="companyName&lt;br&gt;departName&lt;br&gt;headCount&lt;br&gt;endDate" style="text;html=1;strokeColor=none;fillColor=none;align=left;verticalAlign=middle;spacingLeft=4;spacingRight=4;overflow=hidden;rotatable=0;points=[[0,0.5],[1,0.5]];portConstraint=eastwest;whiteSpace=wrap;" vertex="1" parent="_MFq3cLp7MEoQJSqoXY5-17">
          <mxGeometry y="40" width="160" height="60" as="geometry" />
        </mxCell>
        <mxCell id="_MFq3cLp7MEoQJSqoXY5-19" value="" style="line;strokeWidth=1;fillColor=none;align=left;verticalAlign=middle;spacingTop=-1;spacingLeft=3;spacingRight=3;rotatable=0;labelPosition=right;points=[];portConstraint=eastwest;" vertex="1" parent="_MFq3cLp7MEoQJSqoXY5-17">
          <mxGeometry y="100" width="160" height="8" as="geometry" />
        </mxCell>
        <mxCell id="_MFq3cLp7MEoQJSqoXY5-20" value="showInfo()&lt;br&gt;~ApplyInfo()&lt;br&gt;getDate()" style="text;html=1;strokeColor=none;fillColor=none;align=left;verticalAlign=middle;spacingLeft=4;spacingRight=4;overflow=hidden;rotatable=0;points=[[0,0.5],[1,0.5]];portConstraint=eastwest;whiteSpace=wrap;" vertex="1" parent="_MFq3cLp7MEoQJSqoXY5-17">
          <mxGeometry y="108" width="160" height="52" as="geometry" />
        </mxCell>
        <mxCell id="_MFq3cLp7MEoQJSqoXY5-21" value="1&lt;br&gt;&lt;br&gt;&lt;br&gt;&lt;br&gt;&lt;br&gt;&amp;nbsp;&lt;br&gt;&amp;nbsp;0..*" style="endArrow=diamondThin;endFill=0;endSize=24;html=1;rounded=0;entryX=0.426;entryY=1.052;entryDx=0;entryDy=0;entryPerimeter=0;exitX=0.5;exitY=0;exitDx=0;exitDy=0;" edge="1" parent="1" source="_MFq3cLp7MEoQJSqoXY5-13" target="_MFq3cLp7MEoQJSqoXY5-10">
          <mxGeometry x="-0.153" y="-21" width="160" relative="1" as="geometry">
            <mxPoint x="870" y="1231" as="sourcePoint" />
            <mxPoint x="630" y="1590" as="targetPoint" />
            <mxPoint as="offset" />
          </mxGeometry>
        </mxCell>
        <mxCell id="_MFq3cLp7MEoQJSqoXY5-22" value="&lt;span style=&quot;font-size: 15px;&quot;&gt;1&lt;br&gt;&lt;br&gt;&lt;br&gt;&lt;br&gt;0..*&lt;br&gt;&lt;/span&gt;" style="endArrow=diamondThin;endFill=0;endSize=24;html=1;rounded=0;entryX=0.5;entryY=1;entryDx=0;entryDy=0;entryPerimeter=0;exitX=0.563;exitY=0;exitDx=0;exitDy=0;exitPerimeter=0;" edge="1" parent="1" source="_MFq3cLp7MEoQJSqoXY5-17" target="_MFq3cLp7MEoQJSqoXY5-6">
          <mxGeometry x="0.0003" y="20" width="160" relative="1" as="geometry">
            <mxPoint x="460" y="1500" as="sourcePoint" />
            <mxPoint x="390" y="1237.63" as="targetPoint" />
            <mxPoint as="offset" />
          </mxGeometry>
        </mxCell>
        <mxCell id="_MFq3cLp7MEoQJSqoXY5-23" value="" style="ellipse;whiteSpace=wrap;html=1;" vertex="1" parent="1">
          <mxGeometry x="530" y="1040" width="80" height="80" as="geometry" />
        </mxCell>
      </root>
    </mxGraphModel>
  </diagram>
</mxfile>
